<svg width="24" height="24" viewBox="0 0 24 24" fill="none" xmlns="http://www.w3.org/2000/svg">
<g id="Icon-LINE-awesome">
<path id="Vector" d="M19.5526 2.99711C19.3006 3.00883 19.0633 3.08208 18.8524 3.16411H18.8494C18.6356 3.24907 17.619 3.6768 16.075 4.32426C14.5311 4.97465 12.5272 5.8184 10.5379 6.65629C6.56526 8.32915 2.65999 9.97563 2.65999 9.97563L2.70686 9.95805C2.70686 9.95805 2.43733 10.0459 2.15608 10.2393C2.01252 10.3331 1.85432 10.462 1.71663 10.6641C1.57893 10.8663 1.4676 11.1768 1.50862 11.4961C1.576 12.0381 1.92756 12.3633 2.17952 12.542C2.4344 12.7237 2.67756 12.8086 2.67756 12.8086H2.68342L6.34553 14.042C6.50959 14.5694 7.46174 17.6983 7.69026 18.419C7.82502 18.8497 7.95686 19.1192 8.12092 19.3243C8.20002 19.4297 8.29377 19.5176 8.4051 19.5879C8.44905 19.6143 8.49592 19.6348 8.5428 19.6524C8.55745 19.6612 8.57209 19.6641 8.58967 19.667L8.55159 19.6582C8.5633 19.6612 8.57209 19.67 8.58088 19.6729C8.61018 19.6817 8.63069 19.6846 8.66877 19.6905C9.24885 19.8663 9.71467 19.5059 9.71467 19.5059L9.74104 19.4854L11.9031 17.5166L15.5272 20.2969L15.6092 20.3321C16.3651 20.6631 17.1297 20.4786 17.534 20.1534C17.9412 19.8252 18.0994 19.4063 18.0994 19.4063L18.1258 19.3389L20.9266 4.99223C21.0057 4.63774 21.0262 4.30669 20.9383 3.98442C20.8504 3.66215 20.6248 3.3604 20.3524 3.19926C20.077 3.0352 19.8045 2.9854 19.5526 2.99711ZM19.4764 4.5352C19.4735 4.58208 19.4823 4.57622 19.4617 4.66704V4.67583L16.6873 18.8731C16.6756 18.8936 16.6551 18.9375 16.5994 18.9815C16.5408 19.0284 16.494 19.0577 16.2508 18.961L11.8182 15.5625L9.14045 18.003L9.70295 14.4112C9.70295 14.4112 16.6463 7.9395 16.9451 7.66118C17.244 7.38286 17.1444 7.32426 17.1444 7.32426C17.1649 6.98442 16.6932 7.22465 16.6932 7.22465L7.56135 12.8819L7.55842 12.8672L3.18147 11.3936V11.3907C3.17854 11.3907 3.17268 11.3877 3.16975 11.3877C3.17268 11.3877 3.19319 11.379 3.19319 11.379L3.21663 11.3672L3.24006 11.3584C3.24006 11.3584 7.14827 9.71196 11.1209 8.03911C13.1102 7.20122 15.1141 6.35747 16.6551 5.70708C18.1961 5.05961 19.3358 4.585 19.4002 4.55864C19.4617 4.5352 19.4324 4.5352 19.4764 4.5352Z" fill="#4E5969"/>
</g>
</svg>
