<svg width="120" height="120" viewBox="0 0 120 120" fill="none" xmlns="http://www.w3.org/2000/svg">
<g filter="url(#filter0_d_6_5592)">
<rect x="10" y="6" width="100" height="100" rx="50" fill="#89BAEF" shape-rendering="crispEdges"/>
<path fill-rule="evenodd" clip-rule="evenodd" d="M85.309 50.2169C85.309 51.5652 86.4021 52.6583 87.7504 52.6583C89.0987 52.6583 90.1918 51.5652 90.1918 50.2169V27.4304C90.1918 26.0821 89.0987 24.989 87.7504 24.989C86.4021 24.989 85.309 26.0821 85.309 27.4304V50.2169ZM29.8086 50.2169C29.8086 51.5652 30.9017 52.6583 32.25 52.6583C33.5983 52.6583 34.6914 51.5652 34.6914 50.2169V27.4304C34.6914 26.0821 33.5983 24.989 32.25 24.989C30.9017 24.989 29.8086 26.0821 29.8086 27.4304V50.2169Z" fill="#02216F"/>
<path d="M86.5277 88.2198H76.2749C74.9266 88.2198 73.8335 87.1268 73.8335 85.7784C73.8335 84.4301 74.9266 83.337 76.2749 83.337H86.5277C92.0871 83.337 96.7838 78.7529 96.7838 73.3269V55.7491C96.7838 54.4008 97.8769 53.3077 99.2253 53.3077C100.574 53.3077 101.667 54.4008 101.667 55.7491V73.3268C101.667 81.3997 94.7339 88.2198 86.5277 88.2198Z" fill="#053191"/>
<path fill-rule="evenodd" clip-rule="evenodd" d="M25.6577 41.5413H34.4468C35.7951 41.5413 36.8882 42.6344 36.8882 43.9827V63.6767C36.8882 65.025 35.7951 66.1181 34.4468 66.1181H25.6577C21.6191 66.1181 18.3335 62.8324 18.3335 58.7939V48.8655C18.3335 44.8269 21.6191 41.5413 25.6577 41.5413ZM85.5535 41.5413H94.3426C98.3812 41.5413 101.667 44.8269 101.667 48.8655V58.7939C101.667 62.8325 98.3812 66.1181 94.3426 66.1181H85.5535C84.2052 66.1181 83.1121 65.025 83.1121 63.6767V43.9827C83.1121 42.6344 84.2052 41.5413 85.5535 41.5413Z" fill="#0F5AD6"/>
<path d="M82.5286 30.147C76.5267 24.2484 68.5257 20.9999 59.9992 20.9999C51.4665 20.9999 43.4627 24.2487 37.4629 30.1482C31.424 36.0858 28.0981 44.0508 28.0981 52.5759V57.295C28.0981 66.1801 35.3268 73.4087 44.2119 73.4087H75.7865C84.6717 73.4087 91.9002 66.1801 91.9002 57.295V52.5759C91.9002 44.0516 88.5721 36.0863 82.5286 30.147Z" fill="#E8F5FF"/>
<path d="M70.0099 36.9506H49.9904C41.9582 36.9506 35.4233 43.4852 35.4233 51.5176C35.4233 59.5498 41.958 66.0847 49.9904 66.0847H70.0099C78.0422 66.0847 84.577 59.55 84.577 51.5176C84.577 43.4852 78.0422 36.9506 70.0099 36.9506Z" fill="#89BAEF"/>
<path fill-rule="evenodd" clip-rule="evenodd" d="M49.9909 41.8331H70.0104C70.0963 41.8331 70.182 41.8343 70.2674 41.8365C75.4764 41.9737 79.6951 46.2766 79.6951 51.5174C79.6951 56.8439 75.3372 61.2016 70.0109 61.2016H60.0011L49.9909 61.2016C44.6646 61.2016 40.3066 56.8437 40.3066 51.5174C40.3066 46.191 44.6646 41.8331 49.9909 41.8331Z" fill="#02216F"/>
<path d="M50.5342 54.8541C49.1859 54.8541 48.0928 53.761 48.0928 52.4127V50.6223C48.0928 49.274 49.1859 48.1809 50.5342 48.1809C51.8825 48.1809 52.9756 49.274 52.9756 50.6223V52.4127C52.9756 53.761 51.8826 54.8541 50.5342 54.8541Z" fill="#E8F5FF"/>
<path d="M69.4663 54.8541C68.118 54.8541 67.0249 53.761 67.0249 52.4127V50.6223C67.0249 49.274 68.118 48.1809 69.4663 48.1809C70.8146 48.1809 71.9077 49.274 71.9077 50.6223V52.4127C71.9077 53.761 70.8146 54.8541 69.4663 54.8541Z" fill="#E8F5FF"/>
<path d="M72.6953 79.5105H67.3242C63.9587 79.5105 61.2207 82.2485 61.2207 85.614C61.2207 88.9796 63.9587 91.7175 67.3242 91.7175H72.6953C76.0609 91.7175 78.7988 88.9794 78.7988 85.614C78.7988 82.2486 76.0609 79.5105 72.6953 79.5105Z" fill="#0F5AD6"/>
</g>
<defs>
<filter id="filter0_d_6_5592" x="0" y="0" width="120" height="120" filterUnits="userSpaceOnUse" color-interpolation-filters="sRGB">
<feFlood flood-opacity="0" result="BackgroundImageFix"/>
<feColorMatrix in="SourceAlpha" type="matrix" values="0 0 0 0 0 0 0 0 0 0 0 0 0 0 0 0 0 0 127 0" result="hardAlpha"/>
<feOffset dy="4"/>
<feGaussianBlur stdDeviation="5"/>
<feComposite in2="hardAlpha" operator="out"/>
<feColorMatrix type="matrix" values="0 0 0 0 0 0 0 0 0 0 0 0 0 0 0 0 0 0 0.1 0"/>
<feBlend mode="normal" in2="BackgroundImageFix" result="effect1_dropShadow_6_5592"/>
<feBlend mode="normal" in="SourceGraphic" in2="effect1_dropShadow_6_5592" result="shape"/>
</filter>
</defs>
</svg>
