<svg width="16" height="16" viewBox="0 0 16 16" fill="none" xmlns="http://www.w3.org/2000/svg">
<path d="M8 1C9.97933 1.052 11.6278 1.73683 12.9455 3.0545C14.2632 4.37217 14.948 6.02067 15 8C14.948 9.97933 14.2632 11.6278 12.9455 12.9455C11.6278 14.2632 9.97933 14.948 8 15C6.02067 14.948 4.37217 14.2632 3.0545 12.9455C1.73683 11.6278 1.052 9.97933 1 8C1.052 6.02067 1.73683 4.37217 3.0545 3.0545C4.37217 1.73683 6.02067 1.052 8 1ZM8 4C7.729 4 7.505 4.099 7.328 4.297C7.151 4.495 7.07283 4.72933 7.0935 5L7.453 9C7.474 9.146 7.53383 9.26317 7.6325 9.3515C7.73117 9.43983 7.8535 9.48417 7.9995 9.4845C8.1455 9.48483 8.26783 9.4405 8.3665 9.3515C8.46517 9.2625 8.525 9.14533 8.546 9L8.9055 5C8.9265 4.729 8.84833 4.49467 8.671 4.297C8.49367 4.09933 8.26967 4.00033 7.999 4H8ZM8 12C8.22933 11.9897 8.4195 11.9115 8.5705 11.7655C8.7215 11.6195 8.797 11.432 8.797 11.203C8.797 10.974 8.7215 10.7838 8.5705 10.6325C8.4195 10.4812 8.22933 10.4057 8 10.406C7.77067 10.4063 7.5805 10.4818 7.4295 10.6325C7.2785 10.7832 7.203 10.9733 7.203 11.203C7.203 11.4327 7.2785 11.6202 7.4295 11.7655C7.5805 11.9108 7.77067 11.989 8 12Z" fill="#FF7D00"/>
</svg>
